<svg width="19" height="19" viewBox="0 0 19 19" fill="none" xmlns="http://www.w3.org/2000/svg">
<path d="M5.66635 14.4348C5.15549 14.0116 4.82919 13.3982 4.75893 12.7289C4.68868 12.0596 4.8802 11.3891 5.29154 10.8643L5.2551 10.9104L9.93268 4.95662C10.3464 4.43417 10.9449 4.10055 11.5978 4.02861C12.2506 3.95666 12.9046 4.15222 13.4173 4.57258C13.9275 4.99614 14.2535 5.60929 14.3241 6.27822C14.3947 6.94714 14.2042 7.61753 13.7942 8.14309L10.0419 12.9293C9.79601 13.2375 9.44118 13.4335 9.0548 13.4746C8.66842 13.5157 8.28187 13.3986 7.97943 13.1488C7.67821 12.8972 7.48654 12.5335 7.4464 12.1375C7.40626 11.7414 7.52092 11.3452 7.76526 11.0355L10.9328 7.00411C11.0701 6.83009 11.2691 6.71885 11.4862 6.69459C11.7033 6.67033 11.9209 6.73506 12.0916 6.87466C12.2609 7.01567 12.3691 7.2194 12.3928 7.44167C12.4165 7.66394 12.3536 7.88679 12.2179 8.06189L10.2304 10.59M9.54282 17.979C9.54282 17.979 15.4133 18.4179 17.4673 12.8636C18.2688 10.6702 18.2688 8.25383 17.4673 6.06051C15.4069 0.501759 9.54282 0.942845 9.54282 0.942845C9.54282 0.942845 3.67232 0.503953 1.61839 6.06051C0.814704 8.25343 0.814704 10.6706 1.61839 12.8636C3.67232 18.4223 9.54282 17.979 9.54282 17.979Z" stroke="#E95322" stroke-width="1.00311" stroke-linecap="round" stroke-linejoin="round"/>
</svg>
