<svg width="25" height="28" viewBox="0 0 25 28" fill="none" xmlns="http://www.w3.org/2000/svg">
<path d="M7.67295 11.8558V5.91849C7.67666 4.65572 8.1796 3.44559 9.07208 2.55223C9.96455 1.65887 11.1742 1.15473 12.437 1.14978C13.7005 1.15349 14.9112 1.65713 15.8047 2.55062C16.6982 3.44411 17.2019 4.65491 17.2056 5.91849V11.8558M23.6263 22.3787L22.1901 11.7432C22.0541 10.8662 21.6049 10.0683 20.9258 9.49701C20.2466 8.92576 19.3835 8.61983 18.4963 8.636H6.38219C5.4949 8.61983 4.63181 8.92576 3.95268 9.49701C3.27356 10.0683 2.82446 10.8662 2.68843 11.7432L1.25218 22.3787C1.18492 22.989 1.24923 23.6067 1.44068 24.1901C1.63212 24.7735 1.94629 25.3092 2.36208 25.761C2.77787 26.2128 3.28563 26.5702 3.85116 26.8094C4.41669 27.0485 5.02689 27.1639 5.64069 27.1474H19.252C19.8646 27.1618 20.4732 27.0451 21.037 26.805C21.6008 26.565 22.1068 26.2071 22.5211 25.7555C22.9353 25.3039 23.2482 24.7691 23.4388 24.1867C23.6294 23.6043 23.6933 22.9878 23.6263 22.3787Z" stroke="#E95322" stroke-width="1.29996" stroke-linecap="round" stroke-linejoin="round"/>
</svg>
