<svg width="260" height="330" viewBox="0 0 260 330" fill="none" xmlns="http://www.w3.org/2000/svg">
<path d="M226.833 293.443C222.052 277.421 227.648 260.254 233.896 244.722C244.475 220.244 250.25 193.95 250.902 167.28C250.902 119.158 234.276 69.5095 198.581 36.211C180.411 19.6827 157.03 10.0822 132.522 9.08611C108.013 8.09001 83.9347 15.7616 64.4914 30.7612C22.0586 63.4602 8.42104 118.558 9.01869 169.895V194.529M184.4 83.5157C163.102 56.2666 133.818 45.3669 103.773 58.6645C80.1929 69.1282 64.4363 92.1264 56.3953 115.942C46.2353 145.916 50.9622 177.362 47.648 208.317C45.8551 225.811 39.607 243.904 25.9155 254.695M199.667 111.255C206.386 129.065 209.775 147.965 209.664 167.007C209.549 191.073 203.976 214.798 193.365 236.383C187.334 248.755 174.62 270.554 157.778 261.998C144.032 255.022 146.314 238.89 150.225 226.574C157.669 203.194 168.535 182.975 169.622 157.797C170.654 134.199 163.266 109.402 139.903 99.4836C133.254 96.619 125.844 96.055 118.84 97.8804C111.836 99.7058 105.636 103.817 101.219 109.566C81.3877 136.815 92.5804 167.007 83.3984 197.036M120.181 201.832C111.162 227.119 100.839 257.256 109.314 284.07C119.692 316.769 157.017 327.995 187.008 317.422M78.0741 233.495C75.2587 243.872 71.2277 253.879 66.0664 263.306C60.8847 272.77 53.4108 280.773 44.3339 286.576M128.602 166.571C130.698 157.336 131.286 147.82 130.341 138.395C131.522 147.814 130.932 157.371 128.602 166.571Z" stroke="#FFDECF" stroke-width="16.5933" stroke-linecap="round" stroke-linejoin="round"/>
</svg>
