<svg width="20" height="26" viewBox="0 0 20 26" fill="none" xmlns="http://www.w3.org/2000/svg">
<path d="M17.2285 22.774C16.8667 21.5617 17.2901 20.2627 17.7629 19.0874C18.5634 17.2353 19.0003 15.2457 19.0497 13.2276C19.0497 9.58631 17.7917 5.82957 15.0907 3.30996C13.7158 2.05931 11.9466 1.33287 10.0921 1.25749C8.23765 1.18212 6.41571 1.76261 4.94449 2.89759C1.73372 5.37184 0.701797 9.54094 0.747019 13.4255V15.2894M14.0177 6.88938C12.4061 4.82751 10.1902 4.00276 7.9168 5.00896C6.13258 5.80072 4.94032 7.54093 4.33188 9.343C3.5631 11.6111 3.92078 13.9905 3.67 16.3328C3.53433 17.6565 3.06156 19.0256 2.02556 19.8421M15.1729 8.98836C15.6813 10.336 15.9377 11.7661 15.9293 13.2069C15.9206 15.028 15.4989 16.8232 14.696 18.4565C14.2397 19.3926 13.2777 21.0421 12.0032 20.3946C10.9631 19.8668 11.1358 18.6462 11.4318 17.7142C11.995 15.9451 12.8172 14.4152 12.8995 12.51C12.9776 10.7245 12.4185 8.84815 10.6507 8.09763C10.1476 7.88088 9.58685 7.83819 9.05689 7.97632C8.52693 8.11444 8.05782 8.42552 7.72354 8.86053C6.22299 10.9224 7.06991 13.2069 6.37514 15.4791M9.15835 15.842C8.47591 17.7554 7.6948 20.0359 8.33613 22.0648C9.12135 24.539 11.9457 25.3885 14.215 24.5885M5.97226 18.2379C5.75922 19.0232 5.45421 19.7803 5.06367 20.4936C4.67158 21.2097 4.10605 21.8153 3.41923 22.2544M9.79555 13.174C9.95419 12.4751 9.99865 11.7551 9.92713 11.042C10.0166 11.7546 9.9719 12.4778 9.79555 13.174Z" stroke="#E95322" stroke-width="1.42515" stroke-linecap="round" stroke-linejoin="round"/>
</svg>
