<svg width="19" height="17" viewBox="0 0 19 17" fill="none" xmlns="http://www.w3.org/2000/svg">
<path d="M1.18797 11.9538H5.98504M12.9497 11.9538H17.7441M15.1173 5.90891H14.3432M3.42118 4.06626V2.43603M17.6182 6.81233L17.5972 6.79441C17.4375 6.19183 17.1511 5.62817 16.7563 5.13916C16.3615 4.65016 15.8668 4.24646 15.3036 3.95366C14.6966 3.655 14.054 3.43065 13.3906 3.2857L13.3591 3.07584C13.35 2.82477 13.2994 2.57676 13.2095 2.34134C13.1175 2.11283 12.9762 1.90633 12.795 1.73586C12.6139 1.5654 12.3972 1.43498 12.1598 1.35347C11.3529 1.09036 10.5038 0.972426 9.6537 1.00542H9.30728C8.45719 0.972426 7.60804 1.09036 6.80118 1.35347C6.56349 1.43453 6.34659 1.56479 6.1654 1.73531C5.98421 1.90583 5.84302 2.11257 5.75149 2.34134C5.66398 2.56403 5.61433 2.79916 5.60452 3.03745L5.53629 3.29338C4.88405 3.43853 4.25228 3.66023 3.65475 3.95366C3.09197 4.24696 2.59759 4.65082 2.20284 5.13975C1.80809 5.62868 1.52153 6.19208 1.36118 6.79441L1.3428 6.81233C1.08736 7.71248 0.97496 8.6455 1.00952 9.57887C0.963582 10.5622 1.08416 11.5462 1.36641 12.4913C2.00934 14.8125 4.64668 15.6647 7.31026 15.9258H7.38375L7.66715 15.9514L7.88498 15.9667H8.01882L8.26548 15.9821H8.34422L8.80345 16H10.1838L10.643 15.9821H10.7191L10.9815 15.9667H11.1154L11.3306 15.9514L11.614 15.9258H11.6875C14.3537 15.6699 16.991 14.8125 17.6313 12.4913C17.9145 11.5463 18.0359 10.5623 17.9908 9.57887C18.0114 8.64359 17.8857 7.71071 17.6182 6.81233ZM9.46738 13.5124C9.46738 13.5124 12.3908 13.7223 13.4037 11.0863C13.8051 10.0461 13.8051 8.89918 13.4037 7.85905C12.3776 5.22304 9.46738 5.43289 9.46738 5.43289C9.46738 5.43289 6.544 5.22304 5.53105 7.85905C5.12966 8.89918 5.12966 10.0461 5.53105 11.0863C6.544 13.7223 9.46738 13.5124 9.46738 13.5124ZM9.4674 10.9455C9.4674 10.9455 10.5328 11.0223 10.9081 10.0626C11.0524 9.68276 11.0524 9.26511 10.9081 8.88531C10.5328 7.92304 9.4674 7.99981 9.4674 7.99981C9.4674 7.99981 8.40194 7.92304 8.02667 8.88531C7.87977 9.26465 7.87977 9.68322 8.02667 10.0626C8.40194 11.0223 9.4674 10.9455 9.4674 10.9455Z" stroke="#F8F8F8" stroke-width="0.997761" stroke-linecap="round" stroke-linejoin="round"/>
</svg>
