<svg width="44" height="31" viewBox="0 0 44 31" fill="none" xmlns="http://www.w3.org/2000/svg">
<path d="M2 22.5837V23.2482C2.00153 24.8733 2.64814 26.4314 3.7978 27.58C4.94745 28.7285 6.50615 29.3737 8.13124 29.3737H35.8689C37.494 29.3737 39.0525 28.7285 40.2022 27.58C41.3519 26.4314 41.9985 24.8733 42 23.2482V8.13124C42 7.32608 41.8414 6.52879 41.5333 5.78492C41.2252 5.04105 40.7735 4.36515 40.2042 3.79582C39.6348 3.22649 38.9589 2.77482 38.2151 2.4667C37.4712 2.15858 36.6741 2 35.8689 2H8.13124C7.32608 2 6.52879 2.15858 5.78492 2.4667C5.04105 2.77482 4.36515 3.22649 3.79582 3.79582C3.22649 4.36515 2.77482 5.04105 2.4667 5.78492C2.15858 6.52879 2 7.32608 2 8.13124V22.5085M2.01156 8.60506H41.9827M7.62265 16.0191H10.9396M7.62265 21.7573H15.6435M26.0913 21.7573H29.3794M33.5054 21.7573H36.7934" stroke="#E95322" stroke-width="2.88934" stroke-linecap="round" stroke-linejoin="round"/>
</svg>
