<svg width="62" height="65" viewBox="0 0 62 65" fill="none" xmlns="http://www.w3.org/2000/svg">
<path d="M47.6069 31.7432C48.0927 27.7244 46.964 23.677 44.4685 20.4897C41.9731 17.3025 38.3149 15.2358 34.297 14.7432M59.2369 32.9932C59.669 29.4949 59.4069 25.9457 58.4658 22.5488C57.5247 19.1519 55.9231 15.974 53.7524 13.1968C51.5818 10.4196 48.8848 8.09772 45.8158 6.36401C42.7468 4.6303 39.366 3.51871 35.8669 3.09302M43.5869 41.4732C43.0392 41.0141 42.4214 40.646 41.7569 40.3831C38.0469 39.0131 35.007 42.0031 31.547 41.3831C27.857 40.6931 24.7569 37.0031 23.0169 33.9131C22.0097 32.2981 21.6523 30.3613 22.0169 28.4932C23.1369 24.0632 26.5869 22.2031 25.2569 17.1431C24.2569 13.4431 20.3669 7.98316 16.4869 6.97316C9.54692 5.16316 5.83691 11.803 4.35691 17.513C-0.85309 37.513 13.7269 58.793 34.1469 61.513C40.1469 62.323 49.277 61.663 49.787 53.823C50.077 49.323 47.4569 45.1131 44.3169 42.1831L43.5869 41.4732Z" stroke="#E95322" stroke-width="5" stroke-linecap="round" stroke-linejoin="round"/>
</svg>
