<svg width="44" height="42" viewBox="0 0 44 42" fill="none" xmlns="http://www.w3.org/2000/svg">
<path d="M35.6318 32.9338C36.3943 32.8372 37.1675 32.9908 37.8351 33.3716C38.5027 33.7523 39.0286 34.3396 39.3337 35.0451C39.707 35.907 39.7226 36.8819 39.3771 37.7553C39.0316 38.6287 38.3533 39.3292 37.4913 39.7025C37.0643 39.8882 36.6047 39.9878 36.1391 39.9957C35.6734 40.0036 35.2108 39.9196 34.7777 39.7485C34.3445 39.5773 33.9494 39.3225 33.6149 38.9984C33.2803 38.6744 33.013 38.2876 32.8282 37.8601C32.6216 37.3881 32.5212 36.8764 32.534 36.3613C32.5469 35.8463 32.6727 35.3403 32.9026 34.8791M17.5686 34.8906H32.9255M20.8871 30.3304C20.3802 29.6676 19.7297 29.1282 18.9845 28.7527C18.2394 28.3771 17.4188 28.1751 16.5844 28.1619C13.3517 28.1619 10.7255 31.1715 10.7255 34.8849V35.251H14.1585M42.2403 35.6115C42.2388 33.9782 41.5889 32.4123 40.4334 31.2579C39.2779 30.1035 37.7114 29.455 36.0781 29.455M20.9443 35.251C21.0569 35.6084 21.1148 35.9807 21.116 36.3553C21.116 37.2952 20.743 38.1966 20.079 38.8617C19.415 39.5268 18.5142 39.9012 17.5743 39.9027C16.6335 39.9027 15.7312 39.529 15.0659 38.8637C14.4006 38.1985 14.0269 37.2962 14.0269 36.3553C14.0272 35.9802 14.087 35.6074 14.2043 35.251M38.3324 29.8822L35.2656 18.458C35.2656 18.458 38.0806 18.3951 37.2911 14.5158M11.8755 30.9369V24.8377C11.871 24.5862 11.9161 24.3363 12.0084 24.1024C12.1006 23.8684 12.238 23.6549 12.4129 23.4742C12.5878 23.2935 12.7966 23.1491 13.0275 23.0492C13.2583 22.9493 13.5065 22.896 13.758 22.8923H18.3696C18.7386 22.8878 19.104 22.9661 19.4387 23.1216C19.7734 23.2771 20.0689 23.5057 20.3035 23.7906C20.9443 24.5859 24.9209 30.4677 24.9209 30.4677H30.5281C30.8184 30.4631 31.1048 30.3992 31.3696 30.28C31.6344 30.1608 31.8721 29.9888 32.0682 29.7745C32.2642 29.5603 32.4145 29.3083 32.5097 29.034C32.605 28.7596 32.6433 28.4687 32.6222 28.1791L31.209 16.7358C31.1888 16.5591 31.2062 16.3802 31.26 16.2106C31.3137 16.0411 31.4026 15.8848 31.5209 15.752C31.6391 15.6191 31.7841 15.5128 31.9463 15.4397C32.1084 15.3667 32.2841 15.3288 32.462 15.3283H33.6063M30.8485 12.7936H29.2865M26.5001 30.4677V24.9235C26.5001 23.4819 25.9274 22.0993 24.908 21.08C23.8887 20.0606 22.5061 19.4879 21.0645 19.4879H15.8292M9.80432 40H17.5686M25.7219 40H35.6432M7.50994 31.7093H11.1031M2 26.2509H7.17236M26.2311 7.88444C25.7951 8.29092 25.2607 8.57685 24.6806 8.71408C23.8025 8.91228 22.8818 8.75768 22.1166 8.28359C21.3514 7.80951 20.803 7.05386 20.5896 6.17939C20.3912 5.30213 20.545 4.38206 21.0179 3.61702C21.4909 2.85199 22.2452 2.30311 23.1186 2.08842C23.5656 1.98495 24.0288 1.97215 24.4809 2.05077C24.9329 2.12939 25.3647 2.29784 25.7505 2.54615C26.1909 2.81655 26.5551 3.19461 26.809 3.64471C27.0321 4.07383 27.1237 4.60594 27.5185 4.92063C28.1536 5.42986 29.0977 5.12661 29.7442 4.8062M24.9895 15.849L23.1128 19.8942M30.4194 12.7707H29.0862C28.7073 12.7714 28.3377 12.653 28.0297 12.4323C27.7217 12.2116 27.4909 11.8996 27.3698 11.5406C27.1179 10.9638 26.7432 10.4489 26.2718 10.0319C25.8004 9.61486 25.2437 9.30572 24.6405 9.12604C23.0462 8.4916 21.2739 8.46715 19.6627 9.05737C18.3503 9.57955 17.2575 10.5371 16.5673 11.7694C16.0646 12.6743 15.8007 13.6924 15.8006 14.7275V19.4708H20.8871M23.4447 12.7707C23.4447 12.7707 24.2743 18.7727 31.1975 16.8789M27.4155 4.83481C27.4155 4.83481 23.8338 5.91047 20.8356 3.92506M9.55256 13.074H14.5418C14.8833 13.074 15.2107 13.2096 15.4521 13.451C15.6936 13.6925 15.8292 14.0199 15.8292 14.3613V21.6049C15.8292 21.9464 15.6936 22.2738 15.4521 22.5152C15.2107 22.7567 14.8833 22.8923 14.5418 22.8923H5.87355C5.53212 22.8923 5.20467 22.7567 4.96324 22.5152C4.72181 22.2738 4.58618 21.9464 4.58618 21.6049V18.0232C4.59072 16.709 5.11597 15.4502 6.04686 14.5225C6.97774 13.5948 8.23837 13.074 9.55256 13.074Z" stroke="#E95322" stroke-width="2.28866" stroke-linecap="round" stroke-linejoin="round"/>
</svg>
