<svg width="32" height="38" viewBox="0 0 32 38" fill="none" xmlns="http://www.w3.org/2000/svg">
<path d="M21.82 15.7625C22.6127 15.2447 23.5224 14.9361 24.4651 14.8655C26.0104 14.7306 27.5457 15.2185 28.7333 16.222C29.9209 17.2254 30.6637 18.6623 30.7981 20.2164C30.9151 21.5406 30.5791 22.8651 29.8459 23.9712C29.1947 24.907 28.4612 25.782 27.6543 26.5858L27.4965 26.7416M9.98516 15.7623C9.19685 15.2469 8.29263 14.9384 7.3552 14.8652C6.58966 14.7964 5.81813 14.8805 5.08496 15.1124C4.35178 15.3444 3.67141 15.7197 3.08292 16.2169C2.49443 16.7141 2.00942 17.3235 1.65577 18.0098C1.30211 18.6961 1.08677 19.4459 1.02213 20.2162C0.907951 21.538 1.23793 22.8601 1.95924 23.9709C2.63938 25.1329 3.62881 26.0807 4.81592 26.7073M17.6634 8.02466C19.4101 8.31646 21.0418 9.09072 22.3763 10.2611C23.7108 11.4315 24.6956 12.952 25.2208 14.6527M6.58435 14.6827C7.09773 13.1235 7.99235 11.7193 9.18606 10.5984C10.3798 9.47757 11.8343 8.67595 13.4162 8.26775M12.9023 10.8825L12.3431 11.4602M19.3714 13.0564L18.4947 13.938M6.35763 19.517L5.49609 20.3987M20.7166 20.7787L19.976 21.5236M12.7058 18.5745L11.9652 19.3194M27.8659 19.9578L27.3217 20.5051M15.4718 5.09072C14.8745 5.09072 14.3017 5.32916 13.8793 5.75393C13.457 6.17871 13.2197 6.75501 13.2197 7.35573C13.2242 7.58252 13.2598 7.80752 13.3255 8.02451C13.4556 8.50356 13.7396 8.92576 14.1333 9.22548C14.527 9.5252 15.0083 9.68573 15.502 9.6816C16.0993 9.6816 16.6722 9.4428 17.0945 9.01802C17.5169 8.59325 17.7541 8.01732 17.7541 7.4166C17.7623 7.11149 17.7091 6.80755 17.5977 6.52366C17.4862 6.23976 17.3189 5.98156 17.1058 5.76432C16.8926 5.54709 16.638 5.37537 16.3572 5.25959C16.0764 5.14381 15.7752 5.08652 15.4718 5.09072ZM15.4718 5.09072C15.313 4.21641 15.4352 3.3757 15.767 2.55198C16.0989 1.72826 16.6571 1.01649 17.3763 0.5M27.4965 26.7416C27.3096 28.8661 26.7343 30.9421 25.7952 32.8638C25.4654 33.7247 24.9698 34.5115 24.337 35.1793C23.7041 35.8471 22.9463 36.3826 22.1072 36.7551C20.2189 37.3364 18.631 37.5 16.2729 37.5C13.9147 37.5 12.1202 37.3747 10.1363 36.7551C9.29714 36.3826 8.53938 35.8471 7.9065 35.1793C7.27363 34.5115 6.77808 33.7247 6.44831 32.8638C5.31316 30.4933 4.7291 27.8942 4.74035 25.2631C4.75311 24.9017 4.85003 24.5482 5.02329 24.2314C5.19655 23.9145 5.44133 23.643 5.73792 23.4386C6.19014 23.2492 6.68041 23.1697 7.16891 23.2067C7.6574 23.2436 8.13033 23.3963 8.54925 23.6517C9.37733 24.1753 10.3371 24.4496 11.3152 24.4422C13.3104 24.1685 14.2626 21.6905 16.4543 21.9946C18.268 22.253 19.2354 24.1989 20.9887 24.4422C21.9712 24.4475 22.9353 24.1734 23.7698 23.6517C24.1841 23.3917 24.6549 23.2363 25.1419 23.1992C25.6288 23.1622 26.1175 23.2443 26.566 23.4386C26.8652 23.6403 27.1119 23.9114 27.2855 24.2288C27.4591 24.5462 27.5545 24.901 27.5636 25.2631C27.5622 25.7576 27.5397 26.2509 27.4965 26.7416Z" stroke="#E95322" stroke-linecap="round" stroke-linejoin="round"/>
</svg>
