<svg width="23" height="38" viewBox="0 0 23 38" fill="none" xmlns="http://www.w3.org/2000/svg">
<path d="M19.2251 9.08013C20.5593 14.5309 20.3394 20.922 17.4803 25.741C16.4393 27.504 17.5683 29.37 18.1694 31.3387C18.58 32.661 19.3131 34.0567 18.8292 35.3496C18.5913 35.9399 18.1877 36.4484 17.6672 36.8134C17.1467 37.1785 16.5317 37.3845 15.8968 37.4064C14.2178 37.5312 12.5319 37.5312 10.853 37.4064C3.69784 36.9656 10.9703 29.2083 8.91758 25.7557C7.1852 22.5348 6.30203 18.9243 6.3517 15.2658C6.3517 13.2236 6.1171 10.0941 7.70062 8.52201C10.0172 6.23006 14.152 6.21539 16.7765 7.44952M6.6596 18.6005C6.80622 20.4076 8.85893 20.6722 10.2518 20.2462C11.6447 19.8201 13.023 18.6152 14.6505 18.292C15.6183 18.0555 16.6387 18.1745 17.5264 18.6274C18.4142 19.0803 19.1105 19.8372 19.489 20.7605M13.7268 23.6252L22.1429 0.5M9.84129 34.409C12.0269 35.0981 14.371 35.0981 16.5566 34.409M6.29305 15.427C5.99858 15.4862 5.69897 15.5158 5.39865 15.5153C4.23206 15.5153 3.11325 15.0509 2.28834 14.2244C1.46343 13.3978 1 12.2767 1 11.1077C1 9.93872 1.46343 8.8176 2.28834 7.99101C3.11325 7.16443 4.23206 6.70008 5.39865 6.70008C6.56525 6.70008 7.68406 7.16443 8.50897 7.99101C9.33387 8.8176 9.79731 9.93872 9.79731 11.1077M6.73291 10.3878C8.18556 11.0575 9.75952 11.4224 11.3581 11.4603C12.9567 11.4982 14.5461 11.2081 16.0287 10.608" stroke="#E95322" stroke-linecap="round" stroke-linejoin="round"/>
</svg>
