<svg width="24" height="25" viewBox="0 0 24 25" fill="none" xmlns="http://www.w3.org/2000/svg">
<path d="M13.4802 23.5759C13.4802 22.0537 13.4802 19.1109 13.4802 17.3193H16.2796C16.4141 17.3193 16.5432 17.2659 16.6383 17.1707C16.7335 17.0756 16.7869 16.9465 16.7869 16.8119V13.7116C16.7869 13.5771 16.7335 13.448 16.6383 13.3529C16.5432 13.2577 16.4141 13.2043 16.2796 13.2043H13.4802C13.4802 11.9935 13.4802 12.137 13.4802 11.3812C13.4811 11.0542 13.6117 10.7409 13.8432 10.51C14.0748 10.2791 14.3884 10.1494 14.7154 10.1494H16.7695V6.94768C16.7685 6.70792 16.6726 6.4783 16.5028 6.30909C16.3329 6.13988 16.1029 6.04489 15.8632 6.04489H13.2982C12.7592 6.04489 12.2255 6.15105 11.7275 6.35733C11.2295 6.5636 10.777 6.86594 10.3959 7.24709C10.0147 7.62823 9.71241 8.08071 9.50613 8.5787C9.29986 9.07669 9.19367 9.61043 9.19367 10.1494C9.19367 10.1494 9.1482 10.7443 9.1202 13.2043H6.41182C6.26148 13.2043 6.1173 13.264 6.01099 13.3703C5.90468 13.4766 5.84496 13.6208 5.84496 13.7711V16.7524C5.84449 16.827 5.85883 16.9009 5.88716 16.9699C5.91548 17.0389 5.95719 17.1016 6.00992 17.1543C6.06265 17.2071 6.12533 17.2488 6.19432 17.2771C6.26331 17.3054 6.33725 17.3198 6.41182 17.3193H9.08868C9.08868 19.1214 9.08869 21.7108 9.13767 23.3064M9.14469 23.275C6.76899 22.6295 4.67222 21.2191 3.17879 19.262C1.68535 17.3049 0.878503 14.9102 0.883076 12.4484C0.883076 9.47868 2.0628 6.63056 4.16272 4.53064C6.26265 2.43071 9.11077 1.25098 12.0805 1.25098C15.0503 1.25098 17.8984 2.43071 19.9983 4.53064C22.0982 6.63056 23.278 9.47868 23.278 12.4484C23.2798 15.177 22.2852 17.8124 20.481 19.8594C18.6769 21.9065 16.1874 23.2243 13.4802 23.5654" stroke="#E95322" stroke-width="1.42515" stroke-linecap="round" stroke-linejoin="round"/>
</svg>
