<svg width="73" height="70" viewBox="0 0 73 70" fill="none" xmlns="http://www.w3.org/2000/svg">
<path d="M58.9508 14.4583C59.7055 14.7765 60.4431 15.1337 61.1608 15.5283C61.4565 15.6861 61.7435 15.8597 62.0206 16.0483C68.4006 20.0483 70.0208 27.7384 70.2208 34.3384C70.2208 35.3384 70.2208 36.3384 70.2208 37.3384V67.4783L57.2208 59.9683H49.3107C46.6558 60.2844 43.9843 60.4413 41.3107 60.4382C38.447 60.4618 35.5848 60.3049 32.7408 59.9683C25.6708 59.1083 18.7406 56.8883 15.1906 51.7683M57.4806 12.4683C55.9587 10.3766 53.9739 8.66531 51.6808 7.46826C47.4026 5.31287 42.739 4.02802 37.9606 3.68823C35.6906 3.46823 33.1809 3.32836 30.5709 3.31836C24.2109 3.31836 17.3209 4.01834 11.8009 7.04834C11.5051 7.20613 11.2177 7.37973 10.9406 7.56836C4.56055 11.5684 2.94084 19.2584 2.74084 25.8584C2.74084 26.8584 2.69055 27.8584 2.69055 28.8584V59.0083L15.6906 51.4983C15.6906 51.4983 29.0407 51.9583 31.6407 51.9683C34.5045 51.9919 37.3666 51.8349 40.2106 51.4983C49.4106 50.3883 58.3206 46.9484 60.0206 37.8584C60.6753 34.3325 61.01 30.7544 61.0206 27.1682C61.0206 21.7582 60.1406 16.2483 57.4806 12.4683Z" stroke="#E95322" stroke-width="5" stroke-linecap="round" stroke-linejoin="round"/>
</svg>
