<svg width="39" height="39" viewBox="0 0 39 39" fill="none" xmlns="http://www.w3.org/2000/svg">
<path d="M22.0994 37.2926L21.1394 37.3418H18.3086L17.3485 37.2926H17.1885L16.6716 37.2557H16.3886L15.9393 37.2126L15.324 37.1449H15.1701C9.61315 36.4556 4.1054 34.1233 2.76386 27.8402C2.17554 25.2537 1.92527 22.6018 2.01926 19.9509C1.94649 17.4335 2.18 14.9166 2.71465 12.4555L2.7577 12.4124C3.49001 9.30471 4.90542 6.44316 7.53928 4.71392C10.8993 2.51083 15.084 2.00005 18.9363 2.00005H20.5055C24.364 1.9939 28.5486 2.51083 31.9025 4.71392C34.5364 6.44316 35.9518 9.33547 36.6902 12.4124L36.7271 12.4555C37.2618 14.9166 37.4953 17.4335 37.4225 19.9509C37.5195 22.6019 37.2692 25.2542 36.6779 27.8402C35.3487 34.1233 29.8102 36.4372 24.2717 37.1449H24.124L23.5086 37.2126L23.0532 37.2557H22.7763L22.2593 37.2926H22.0994Z" stroke="#E95322" stroke-width="2.29" stroke-linejoin="round"/>
<circle cx="28.7578" cy="9.63694" r="1.84617" fill="#E95322"/>
</svg>
