<svg width="75" height="75" viewBox="0 0 75 75" fill="none" xmlns="http://www.w3.org/2000/svg">
<path d="M35.9053 37.5915H3.18533M11.5854 46.4114L5.11523 41.5015C4.51413 41.0433 4.02679 40.4525 3.69141 39.7751C3.35602 39.0978 3.18164 38.3522 3.18164 37.5964C3.18164 36.8406 3.35602 36.0951 3.69141 35.4177C4.02679 34.7404 4.51413 34.1496 5.11523 33.6914L11.5854 28.7715M57.2253 16.0415V59.1415M24.0151 51.2714C30.0151 73.6014 46.9453 71.8315 46.9453 71.8315C46.9453 71.8315 63.9455 73.6014 69.8755 51.2714C72.2055 42.3003 72.2055 32.8825 69.8755 23.9113C63.9255 1.58133 46.9453 3.35151 46.9453 3.35151C46.9453 3.35151 29.9451 1.58133 24.0151 23.9113" stroke="#E95322" stroke-width="5" stroke-linecap="round" stroke-linejoin="round"/>
</svg>
