<svg width="19" height="38" viewBox="0 0 19 38" fill="none" xmlns="http://www.w3.org/2000/svg">
<path d="M4.90236 25.1019C4.0929 27.1432 3.47546 29.2631 3.05895 31.4314C2.76708 33.0502 2.53665 35.7215 3.87311 36.8871C4.14096 37.1579 4.47243 37.3486 4.83344 37.4396C5.19445 37.5306 5.57195 37.5186 5.9271 37.4048C6.28225 37.2911 6.60222 37.0796 6.8541 36.7922C7.10598 36.5049 7.2807 36.1523 7.36022 35.7702C7.55992 34.378 7.17584 28.1776 7.12976 26.5749C7.12976 25.5227 7.12976 24.4542 7.12976 23.3372C7.12976 17.3475 6.93008 7.37582 6.91472 1.38613C6.90221 1.20469 6.8408 1.0305 6.7377 0.884594C6.6346 0.73869 6.49407 0.627106 6.33271 0.562487C6.17134 0.497867 5.99581 0.482876 5.82678 0.519802C5.65775 0.556729 5.50225 0.643875 5.37856 0.770769C1.38455 5.8701 -0.320594 12.5075 2.15262 18.7886C2.57031 19.9266 3.24917 20.9376 4.12846 21.7314C5.00775 22.5253 6.06004 23.0769 7.19122 23.3372M13.6585 16.2793C13.4741 19.776 12.7675 23.2078 12.3066 26.6721C11.8921 28.8899 11.6914 31.146 11.7075 33.4063C11.8304 35.1385 12.4296 37.4696 14.4573 37.4858C15.013 37.5035 15.5569 37.3146 15.9934 36.9519C16.4822 36.4318 16.8182 35.7739 16.9612 35.0575C17.2053 33.9988 17.2934 32.9068 17.2223 31.8199C17.2223 30.0877 16.8383 28.4043 16.6079 26.7045C16.147 23.2402 15.4404 19.8084 15.2561 16.3117M13.0747 1.12682V9.221M15.9012 9.17239V1.07821M10.5708 1.12682V12.216C10.5748 13.3009 10.9856 14.3403 11.7136 15.1075C12.4416 15.8746 13.4278 16.3074 14.4573 16.3117C15.4868 16.3074 16.473 15.8746 17.201 15.1075C17.9289 14.3403 18.3397 13.3009 18.3437 12.216V1.12682" stroke="#E95322" stroke-linecap="round" stroke-linejoin="round"/>
</svg>
