<svg width="13" height="17" viewBox="0 0 13 17" fill="none" xmlns="http://www.w3.org/2000/svg">
<path d="M12.4521 8.79635C12.4487 10.3345 11.8361 11.8087 10.7485 12.8964C9.6608 13.984 8.1866 14.5966 6.64841 14.6C5.11023 14.5966 3.63602 13.984 2.54836 12.8964C1.46069 11.8087 0.848133 10.3345 0.844727 8.79635M3.21586 8.06765H10.088M6.65271 11.5735C6.65271 11.5735 4.1593 11.9497 3.29949 8.45025C2.95984 7.04172 2.95984 5.57265 3.29949 4.16413C4.17004 0.660422 6.65273 0.939858 6.65273 0.939858C6.65273 0.939858 9.13326 0.660422 10.0038 4.16413C10.3456 5.5724 10.3456 7.04198 10.0038 8.45025C9.13326 11.9518 6.65271 11.5735 6.65271 11.5735ZM6.65271 11.5735V16.498M3.05013 5.98907H4.7074M3.32956 4.04591H4.7074M8.67755 4.04591H9.97586M8.59587 5.98907H10.2596M4.7074 16.498H8.59587" stroke="#E95322" stroke-width="1.00311" stroke-linecap="round" stroke-linejoin="round"/>
</svg>
