<svg width="19" height="26" viewBox="0 0 19 26" fill="none" xmlns="http://www.w3.org/2000/svg">
<path d="M5.00425 5.59339H3.63665C3.02491 5.59339 2.43824 5.8414 2.00567 6.28285C1.57311 6.72431 1.33008 7.32306 1.33008 7.94738V22.7865C1.33008 23.4771 1.5989 24.1394 2.0774 24.6278C2.5559 25.1161 3.20488 25.3904 3.88158 25.3904H15.1082C15.4441 25.3918 15.777 25.3255 16.0878 25.1952C16.3985 25.065 16.681 24.8734 16.919 24.6314C17.157 24.3895 17.3459 24.102 17.4747 23.7854C17.6036 23.4688 17.6699 23.1293 17.6699 22.7865V8.20777C17.6699 7.5144 17.4 6.84942 16.9196 6.35913C16.4392 5.86884 15.7876 5.59339 15.1082 5.59339H14.0264M14.0264 5.59339H14.0162M14.0264 5.59339V6.32249C14.0264 6.57111 13.9296 6.80955 13.7573 6.98535C13.5851 7.16116 13.3515 7.25993 13.1078 7.25993H5.96362C5.84214 7.2613 5.72161 7.23808 5.60899 7.19159C5.49637 7.14509 5.39387 7.07626 5.30749 6.98907C5.22112 6.90189 5.15256 6.79807 5.10576 6.68365C5.05896 6.56923 5.03486 6.44648 5.03487 6.32249V4.23932C5.03756 3.98975 5.1366 3.75134 5.31048 3.57583C5.48437 3.40032 5.71906 3.30189 5.96362 3.30191H7.30544C7.63144 3.30191 7.85491 2.95087 7.85174 2.62488V2.62488C7.85174 2.19394 8.01948 1.78065 8.31807 1.47592C8.61665 1.1712 9.02162 1 9.44388 1C9.86614 1 10.2711 1.1712 10.5697 1.47592C10.8683 1.78065 11.036 2.19394 11.036 2.62488V2.62488C11.0329 2.95087 11.2563 3.30191 11.5823 3.30191H13.1078C13.3515 3.30191 13.5851 3.40068 13.7573 3.57648C13.9296 3.75228 14.0264 3.9907 14.0264 4.23932V5.59339ZM4.62867 11.8932H11.4667M4.62867 16.277H11.4667M13.4817 16.2505H14.0264M13.4817 11.8932H14.0264M4.62867 20.6343H11.4667M13.4817 20.6078H14.0264" stroke="#F8F8F8" stroke-linecap="round" stroke-linejoin="round"/>
</svg>
