<svg width="32" height="32" viewBox="0 0 32 32" fill="none" xmlns="http://www.w3.org/2000/svg">
<path d="M21.7786 6.75585L18.7556 2.70087C18.4164 2.2491 17.982 1.8835 17.4859 1.63207C16.9898 1.38064 16.4449 1.25 15.8926 1.25C15.3404 1.25 14.7955 1.38064 14.2994 1.63207C13.8033 1.8835 13.3691 2.2491 13.03 2.70087L10.007 6.75585C9.58232 7.32719 9.00997 7.76185 8.35644 8.00933L3.70714 9.74541C3.17633 9.93301 2.69476 10.2457 2.30015 10.6587C1.90555 11.0718 1.60858 11.5741 1.43282 12.1261C1.25706 12.6782 1.20709 13.2649 1.28698 13.8403C1.36688 14.4158 1.57453 14.9641 1.89335 15.4424L4.67455 19.6854C5.05692 20.2826 5.26669 20.9807 5.27914 21.6974L5.4362 26.8178C5.44784 27.3977 5.58891 27.967 5.84802 28.481C6.10713 28.9951 6.47742 29.44 6.92997 29.781C7.38253 30.1221 7.90487 30.3501 8.45652 30.4471C9.00817 30.5441 9.57399 30.5074 10.1097 30.34L14.862 28.9112C15.5273 28.7094 16.2341 28.7094 16.8993 28.9112L21.6516 30.34C22.1874 30.5074 22.7532 30.5441 23.3048 30.4471C23.8565 30.3501 24.3788 30.1221 24.8314 29.781C25.2839 29.44 25.6542 28.9951 25.9133 28.481C26.1724 27.967 26.3135 27.3977 26.3252 26.8178L26.4822 21.6974C26.4986 20.9814 26.708 20.2844 27.0868 19.6854L29.868 15.4424C30.1813 14.9643 30.3849 14.4184 30.4634 13.8463C30.542 13.2742 30.4935 12.6911 30.3214 12.1414C30.1494 11.5918 29.8584 11.0901 29.4706 10.6748C29.0829 10.2596 28.6087 9.94166 28.0843 9.74541L23.4291 8.00933C22.7756 7.76185 22.2032 7.32719 21.7786 6.75585Z" stroke="#E95322" stroke-width="2.25" stroke-linecap="round" stroke-linejoin="round"/>
</svg>
