<svg width="22" height="28" viewBox="0 0 22 28" fill="none" xmlns="http://www.w3.org/2000/svg">
<path d="M16.0467 13.2028C15.8726 15.4347 15.2371 18.0393 14.804 20.2471C14.5327 21.6696 14.1158 23.1001 14.2534 24.5426C14.3546 25.6526 14.9173 27.1352 16.7712 27.1472C17.2596 27.1636 17.743 27.0457 18.1678 26.8066C18.5884 26.5129 18.8998 26.0905 19.0542 25.6045C19.2833 24.9334 19.3661 24.2219 19.2971 23.5168C19.1773 22.4179 18.9894 21.3273 18.7344 20.2511C18.3297 18.0433 17.6658 15.4227 17.4917 13.1908M4.27547 13.7358C4.10546 15.9116 3.4659 18.2677 3.06111 20.4234C2.79395 21.8099 2.38511 23.2003 2.51869 24.6067C2.61988 25.6886 3.17038 27.1352 4.98788 27.1472C5.46765 27.1649 5.9429 27.0498 6.36011 26.8146C6.77334 26.5292 7.0794 26.1164 7.23042 25.6405C7.45587 24.9867 7.53729 24.2926 7.46923 23.605C7.35241 22.5339 7.16718 21.4713 6.91467 20.4234C6.50988 18.2677 5.86627 15.9116 5.70031 13.7358M0.749756 2.07139V9.60454C0.752954 10.7155 1.19994 11.7802 1.99317 12.5662C2.78641 13.3521 3.86151 13.7956 4.98384 13.7999C6.10688 13.7967 7.18299 13.3537 7.9771 12.5676C8.77121 11.7815 9.21875 10.7162 9.22195 9.60454V2.07139M3.56708 2.07139V7.39268M6.45726 2.07139V7.39268M21.1106 7.20836C21.1106 10.5544 19.1678 13.2669 16.7712 13.2669C14.3747 13.2669 12.4319 10.5544 12.4319 7.20836C12.4319 3.8623 14.3747 1.14978 16.7712 1.14978C19.1678 1.14978 21.1106 3.8623 21.1106 7.20836Z" stroke="#E95322" stroke-width="1.29996" stroke-linecap="round" stroke-linejoin="round"/>
</svg>
