<svg width="68" height="73" viewBox="0 0 68 73" fill="none" xmlns="http://www.w3.org/2000/svg">
<path d="M57.0743 40.1399L61.3944 42.6299C62.9669 43.5397 64.1143 45.0363 64.5848 46.791C65.0554 48.5458 64.8107 50.4155 63.9044 51.99L62.3744 54.6399C61.924 55.4187 61.3246 56.1011 60.6105 56.6482C59.8963 57.1953 59.0813 57.5965 58.2122 57.8286C57.343 58.0608 56.4367 58.1194 55.5448 58.0012C54.653 57.883 53.7931 57.5904 53.0144 57.1399L48.7144 54.6599C46.8353 56.1708 44.7338 57.3819 42.4844 58.25V63.25C42.4844 65.0667 41.7627 66.8089 40.478 68.0935C39.1934 69.3781 37.4511 70.0999 35.6344 70.0999H32.5744C30.7576 70.0999 29.0153 69.3781 27.7307 68.0935C26.4461 66.8089 25.7244 65.0667 25.7244 63.25V58.25C23.4749 57.3819 21.3734 56.1708 19.4944 54.6599L15.4243 57.01C14.6149 57.4777 13.7214 57.7811 12.7946 57.9031C11.8678 58.025 10.9259 57.9631 10.0231 57.7207C9.12026 57.4783 8.27415 57.06 7.53309 56.4902C6.79203 55.9204 6.17058 55.2101 5.70436 54.3999L4.44435 52.22C3.97598 51.4104 3.67177 50.5165 3.54896 49.5894C3.42615 48.6622 3.4872 47.72 3.72865 46.8164C3.97009 45.9128 4.38713 45.0656 4.95606 44.3232C5.52499 43.5809 6.23457 42.958 7.04432 42.49L11.1244 40.1399C10.7244 37.7633 10.7244 35.3366 11.1244 32.96L7.04432 30.6099C6.23457 30.1418 5.52499 29.5189 4.95606 28.7766C4.38713 28.0343 3.97009 27.1873 3.72865 26.2837C3.4872 25.3801 3.42615 24.4377 3.54896 23.5105C3.67177 22.5833 3.97598 21.6894 4.44435 20.8799L5.70436 18.7C6.17058 17.8897 6.79203 17.1794 7.53309 16.6096C8.27415 16.0398 9.12026 15.6216 10.0231 15.3792C10.9259 15.1367 11.8678 15.0748 12.7946 15.1968C13.7214 15.3187 14.6149 15.6221 15.4243 16.0898L19.4944 18.4399C21.3734 16.9291 23.4749 15.718 25.7244 14.8499V9.84985C25.7244 8.03312 26.4461 6.29097 27.7307 5.00635C29.0153 3.72172 30.7576 3 32.5744 3H35.6344C37.4511 3 39.1934 3.72172 40.478 5.00635C41.7627 6.29097 42.4844 8.03312 42.4844 9.84985V14.8499C44.7338 15.718 46.8353 16.9291 48.7144 18.4399L53.0144 15.96C53.7931 15.5095 54.653 15.2168 55.5448 15.0986C56.4367 14.9805 57.343 15.0391 58.2122 15.2712C59.0813 15.5034 59.8963 15.9045 60.6105 16.4517C61.3246 16.9988 61.924 17.6812 62.3744 18.46L63.9044 21.1099C64.8107 22.6844 65.0554 24.5543 64.5848 26.3091C64.1143 28.0638 62.9669 29.5602 61.3944 30.47L57.0743 32.96C57.4877 35.3354 57.4877 37.7644 57.0743 40.1399Z" stroke="#E95322" stroke-width="5" stroke-linecap="round" stroke-linejoin="round"/>
</svg>
