<svg width="16" height="16" viewBox="0 0 16 16" fill="none" xmlns="http://www.w3.org/2000/svg">
<path d="M6.05363 10.2367L10.2307 6.05967M10.9751 13.851C11.2786 13.0648 11.5873 12.2822 11.9011 11.5028L14.0062 6.23875C14.4018 5.2497 14.7991 4.25806 15.1981 3.26389C15.3605 2.85781 15.3979 2.41244 15.3055 1.98495C15.2527 1.7404 15.1305 1.51627 14.9535 1.33936C14.7766 1.16244 14.5525 1.04025 14.308 0.987397C13.8805 0.894494 13.435 0.931896 13.029 1.09481L4.79005 4.3919C4.00904 4.70567 3.22641 5.01435 2.44199 5.31789C1.88181 5.53531 1.22691 5.82944 1.01717 6.43821C0.518377 7.90388 2.40615 8.60223 3.43442 8.97824C4.41921 9.33635 5.71608 9.64841 6.32741 10.5744C6.78527 11.265 7.03585 12.0886 7.31722 12.8611C7.69323 13.8843 8.39158 15.7771 9.85725 15.2783C10.4711 15.066 10.7577 14.4112 10.9751 13.851Z" stroke="#E95322" stroke-width="1.00311" stroke-linecap="round" stroke-linejoin="round"/>
</svg>
