<svg width="12" height="9" viewBox="0 0 12 9" fill="none" xmlns="http://www.w3.org/2000/svg">
<path d="M5.23086 2.46131H11.3847M5.23086 2.46131C5.23086 3.31098 4.54207 3.99977 3.6924 3.99977C2.84273 3.99977 2.15394 3.31098 2.15394 2.46131M5.23086 2.46131C5.23086 1.61164 4.54207 0.922852 3.6924 0.922852C2.84273 0.922852 2.15394 1.61164 2.15394 2.46131M0.615479 2.46131H2.15394M9.07702 6.30747H11.3847M9.07702 6.30747C9.07702 7.15714 8.38822 7.84593 7.53856 7.84593C6.68889 7.84593 6.00009 7.15714 6.00009 6.30747M9.07702 6.30747C9.07702 5.4578 8.38822 4.76901 7.53856 4.76901C6.68889 4.76901 6.00009 5.4578 6.00009 6.30747M0.615479 6.30747H6.00009" stroke="#F5F5F5" stroke-linecap="round" stroke-linejoin="round"/>
</svg>
