<svg width="35" height="39" viewBox="0 0 35 39" fill="none" xmlns="http://www.w3.org/2000/svg">
<path d="M7.89473 21.0698C9.25861 21.4956 10.6635 21.7872 12.088 21.9405C15.0956 22.2574 18.1252 22.3321 21.1456 22.1635C25.0842 22.2618 28.9717 21.2859 32.3627 19.3482C32.7729 19.6216 33.1116 19.9835 33.3518 20.4053C33.592 20.8271 33.7271 21.2973 33.7465 21.7783C34.0279 25.0209 33.39 28.2766 31.9014 31.1957M21.8375 37.8181C21.2295 37.8181 20.6005 37.9595 19.9715 38C18.8602 38 17.749 38 16.6378 38C11.7945 37.8582 6.59485 36.4811 4.1837 31.9245C2.08705 28.1374 1.3532 22.8925 3.63855 19.0649M16.2395 19.9357C16.5214 19.6497 16.7187 19.2959 16.8109 18.9112C16.9031 18.5265 16.8868 18.1248 16.7636 17.7483C16.6332 17.3779 16.4129 17.0431 16.1211 16.7718C15.8293 16.5005 15.4745 16.3006 15.0863 16.1889C13.6844 16.0193 12.2655 16.3354 11.0817 17.0803C9.34149 17.7892 7.28675 19.3483 5.35783 19.3888C1.16454 19.3888 -0.932077 10.8829 3.36606 9.60707C3.82604 9.45999 4.3227 9.45928 4.78312 9.6051C5.24354 9.75091 5.64338 10.0358 5.92391 10.4174C6.76257 11.6933 6.511 13.1714 7.85285 14.2245C8.47892 14.7016 9.18926 15.0654 9.9495 15.2979C11.2495 15.7312 12.6031 15.9971 13.9751 16.088M28.8822 15.1559C27.564 15.2176 26.2434 15.095 24.9615 14.7915C24.1815 14.6251 23.4369 14.3306 22.7601 13.9209C21.2924 12.969 21.3763 11.4297 20.3908 10.2146C20.0569 9.85392 19.6132 9.60503 19.1235 9.50315C18.6338 9.40127 18.1232 9.45157 17.6652 9.64752C13.4719 11.3892 16.4282 19.9153 20.7892 19.4293C22.7391 19.2065 24.668 17.4042 26.3662 16.4929C27.5037 15.6207 28.9187 15.1553 30.3708 15.1762C30.7798 15.2495 31.1647 15.4165 31.4931 15.6632C31.8214 15.9099 32.0837 16.2294 32.2579 16.5942C32.4269 16.967 32.4869 17.3774 32.4314 17.7809C32.376 18.1843 32.2072 18.5651 31.9433 18.8824C31.408 19.5689 30.7093 20.1207 29.9064 20.4908C29.1034 20.861 28.2199 21.0387 27.3307 21.009C25.677 20.7767 24.1772 19.9435 23.1374 18.6797M30.245 31.6006C28.8867 32.0155 27.4756 32.2474 26.0517 32.2894C25.2704 32.3208 24.4895 32.2176 23.7454 31.9853C22.11 31.4385 21.8165 29.9602 20.5795 29.0692C20.1861 28.7941 19.7128 28.6459 19.2271 28.6459C18.7414 28.6459 18.2682 28.7941 17.8748 29.0692C14.3524 31.7221 19.3006 39.0734 23.2842 37.5748C25.0663 36.9065 26.4082 34.7395 27.792 33.5244C28.7774 32.6334 29.7838 31.4991 31.2304 31.3371C31.6284 31.3266 32.0238 31.4033 32.3868 31.5611C32.7499 31.7189 33.0713 31.9541 33.3271 32.2488C33.5745 32.5627 33.7302 32.9349 33.7782 33.3267C33.8261 33.7185 33.7645 34.1152 33.5997 34.4762C33.264 35.2519 32.7402 35.9384 32.0725 36.4777C31.4047 37.0169 30.6126 37.3931 29.7628 37.5748C28.9523 37.6775 28.1286 37.6233 27.3402 37.4146C26.5517 37.2059 25.8143 36.8474 25.1712 36.36M15.1282 3.06572C14.696 4.14885 14.1027 5.16535 13.367 6.08321C12.9355 6.64188 12.4113 7.12815 11.8155 7.5215C10.4737 8.33157 9.25759 7.68352 7.8738 8.0278C7.4281 8.1578 7.03986 8.42698 6.77032 8.79366C6.50079 9.16035 6.36526 9.60367 6.38514 10.053C6.25934 14.1033 14.3944 14.9131 15.6104 11.2475C15.8286 9.38717 15.7223 7.50466 15.2959 5.67827C14.9976 4.43267 15.1454 3.126 15.7153 1.97204C15.9252 1.67489 16.2064 1.43133 16.535 1.26205C16.8636 1.09276 17.2298 1.00283 17.6022 1C17.9714 1.0192 18.3288 1.13269 18.6381 1.3283C18.9474 1.52391 19.1976 1.79479 19.3634 2.11395C19.725 2.81182 19.9134 3.5817 19.9134 4.36211C19.9134 5.14251 19.725 5.9119 19.3634 6.60978C18.5826 7.87077 17.3159 8.78116 15.841 9.14125" stroke="#E95322" stroke-linecap="round" stroke-linejoin="round"/>
</svg>
