<svg width="35" height="41" viewBox="0 0 35 41" fill="none" xmlns="http://www.w3.org/2000/svg">
<path d="M27.1285 16.0395V7.40925C27.1285 5.97463 26.5585 4.59869 25.5441 3.58426C24.5297 2.56983 23.1539 2 21.7192 2H11.2499C10.5174 1.99949 9.81292 2.28122 9.28287 2.78673L2.82127 9.15007C2.58773 9.38218 2.39931 9.65559 2.26559 9.95648C2.08918 10.3266 1.9984 10.7316 2.00002 11.1416V33.3982C2.00002 34.8328 2.56997 36.2087 3.5844 37.2232C4.59883 38.2376 5.97465 38.8074 7.40927 38.8074H21.734C22.8791 38.8056 23.9943 38.4404 24.9186 37.7644C25.843 37.0883 26.5289 36.1364 26.8777 35.0456M16.1083 9.73029H22.4863M6.33726 16.0394H22.4863M23.0568 23.4255H33M29.6167 20.1751L32.459 22.3338C32.6271 22.4613 32.7635 22.626 32.8573 22.815C32.9512 23.0039 33 23.2121 33 23.4231C33 23.634 32.9512 23.8422 32.8573 24.0311C32.7635 24.2201 32.6271 24.3848 32.459 24.5123L29.6167 26.6711M28.4021 30.9395H18.4835M21.8422 34.185L19.0392 32.0557C18.866 31.9251 18.7256 31.756 18.6289 31.5619C18.5321 31.3678 18.4818 31.1539 18.4818 30.937C18.4818 30.7201 18.5321 30.5062 18.6289 30.3121C18.7256 30.118 18.866 29.949 19.0392 29.8183L21.8422 27.689M10.0942 2.27049V6.35192C10.0949 6.82762 10.0018 7.29889 9.82016 7.73856C9.63856 8.17824 9.37204 8.57779 9.03589 8.91439C8.69975 9.251 8.30057 9.51797 7.86114 9.70016C7.42171 9.88236 6.95068 9.97617 6.47497 9.97617H2.28033C2.41405 9.67528 2.60247 9.40187 2.83601 9.16975L9.29761 2.80642C9.52991 2.58271 9.79951 2.40139 10.0942 2.27049Z" stroke="#E95322" stroke-width="2.45875" stroke-linecap="round" stroke-linejoin="round"/>
</svg>
